<?xml version="1.0" encoding="utf-8"?>
<!-- Generator: Adobe Illustrator 26.2.1, SVG Export Plug-In . SVG Version: 6.00 Build 0)  -->
<svg version="1.1" id="Layer_1" xmlns="http://www.w3.org/2000/svg" xmlns:xlink="http://www.w3.org/1999/xlink" x="0px" y="0px"
	 viewBox="0 0 600 600" style="enable-background:new 0 0 600 600;" xml:space="preserve">
<style type="text/css">
	.st0{fill:#F1B41C;}
	.st1{fill:#547DBF;}
	.st2{fill:#DC4439;}
	.st3{fill:#0D9C5D;}
</style>
<path class="st0" d="M199,449.6c-19.1,14.4-38.1,28.8-57.2,43.2c0.3-97.5,0.6-194.9,0.8-292.4c18.8-12,37.6-24.1,56.3-36.1
	C199,259.4,199,354.5,199,449.6z"/>
<path class="st1" d="M308.1,508.9c-11.9,20.9-23.7,41.8-35.6,62.8c-43.3-89.2-86.5-178.4-129.8-267.6c18.9-13,37.8-25.9,56.6-38.9
	C235.6,346.4,271.8,427.7,308.1,508.9z"/>
<path class="st2" d="M343.4,523c-23.6,16.2-47.3,32.5-70.9,48.7c0-183.7,0-367.5,0-551.2c23.6,15.7,47.3,31.4,70.9,47
	C343.4,219.3,343.4,371.1,343.4,523z"/>
<path class="st3" d="M272.4,571.7c0-29.2,0-58.5,0-87.7c67.6-45.8,135.1-91.6,202.7-137.4c0,28.7,0,57.5,0,86.2
	C407.6,479,340,525.4,272.4,571.7z"/>
</svg>
